<svg width="4085" height="4085" viewBox="0 0 4085 4085" fill="none"
     xmlns="http://www.w3.org/2000/svg">
    <rect width="4085" height="4085" fill="white"/>
    <rect width="657.2" height="657.2" transform="matrix(0.866025 0.5 -0.866025 0.5 2037.1 1976.78)"
          fill="url(#paint0_linear_678_100)"/>
    <rect width="657.2" height="657.2" transform="matrix(0.866025 0.5 -0.866025 0.5 2037.1 1845.34)"
          fill="url(#paint1_linear_678_100)"/>
    <rect width="657.2" height="657.2" transform="matrix(0.866025 0.5 -0.866025 0.5 2037.1 1713.9)"
          fill="url(#paint2_linear_678_100)"/>
    <rect width="657.2" height="657.2" transform="matrix(0.866025 0.5 -0.866025 0.5 2037.1 1582.46)"
          fill="url(#paint3_linear_678_100)"/>
    <rect width="657.2" height="657.2" transform="matrix(0.866025 0.5 -0.866025 0.5 2037.1 1451.02)"
          fill="url(#paint4_linear_678_100)"/>
    <defs>
        <linearGradient id="paint0_linear_678_100" x1="734.54" y1="727.729" x2="143.06" y2="727.729"
                        gradientUnits="userSpaceOnUse">
            <stop stop-color="#F7F7F7" stop-opacity="0.85"/>
            <stop offset="1" stop-color="#3F3F3F" stop-opacity="0.83"/>
        </linearGradient>
        <linearGradient id="paint1_linear_678_100" x1="726.325" y1="719.514" x2="42.2339"
                        y2="746.837" gradientUnits="userSpaceOnUse">
            <stop stop-color="white"/>
            <stop offset="1" stop-color="#3F3F3F"/>
        </linearGradient>
        <linearGradient id="paint2_linear_678_100" x1="709.896" y1="703.084" x2="42.2318"
                        y2="730.381" gradientUnits="userSpaceOnUse">
            <stop stop-color="white"/>
            <stop offset="1" stop-color="#3F3F3F"/>
        </linearGradient>
        <linearGradient id="paint3_linear_678_100" x1="725.055" y1="737.215" x2="23.3059"
                        y2="746.575" gradientUnits="userSpaceOnUse">
            <stop stop-color="white"/>
            <stop offset="1" stop-color="#3F3F3F"/>
        </linearGradient>
        <linearGradient id="paint4_linear_678_100" x1="660.605" y1="653.794" x2="-0.0684654"
                        y2="663.146" gradientUnits="userSpaceOnUse">
            <stop stop-color="white"/>
            <stop offset="1" stop-color="#3F3F3F"/>
        </linearGradient>
    </defs>
</svg>
