<svg width="4085" height="4085" viewBox="0 0 4085 4085" fill="none"
     xmlns="http://www.w3.org/2000/svg">
    <rect width="4085" height="4085" fill="#0C0C0C"/>
    <path d="M1434.6 2365.62L2042.51 2013.68L2042.51 1352.44L1434.6 1704.39L1434.6 2365.62Z"
          fill="url(#paint0_linear_562_441)"/>
    <path fill-rule="evenodd" clip-rule="evenodd"
          d="M2042.51 1949.69L2042.51 1971.02L1434.6 2322.96L1434.6 2301.63L2042.51 1949.69ZM2042.51 1928.36L1434.6 2280.3L1434.6 2258.97L2042.51 1907.03L2042.51 1928.36ZM1434.6 2216.31L1434.6 2237.64L2042.51 1885.7L2042.51 1864.37L1434.6 2216.31ZM1434.6 2194.98L1434.6 2173.65L2042.51 1821.71L2042.51 1843.04L1434.6 2194.98ZM1434.6 2130.99L1434.6 2152.32L2042.51 1800.38L2042.51 1779.05L1434.6 2130.99ZM1434.6 2109.66L1434.6 2088.33L2042.51 1736.38L2042.51 1757.72L1434.6 2109.66ZM1434.6 2045.67L1434.6 2067L2042.51 1715.05L2042.51 1693.72L1434.6 2045.67ZM1434.6 2024.34L1434.6 2003.01L2042.51 1651.06L2042.51 1672.39L1434.6 2024.34ZM1434.6 1960.35L1434.6 1981.68L2042.51 1629.73L2042.51 1608.4L1434.6 1960.35ZM1434.6 1939.02L1434.6 1917.69L2042.51 1565.74L2042.51 1587.07L1434.6 1939.02ZM1434.6 1875.03L1434.6 1896.36L2042.51 1544.41L2042.51 1523.08L1434.6 1875.03ZM1434.6 1853.7L1434.6 1832.37L2042.51 1480.42L2042.51 1501.75L1434.6 1853.7ZM1434.6 1789.71L1434.6 1811.04L2042.51 1459.09L2042.51 1437.76L1434.6 1789.71ZM1434.6 1768.38L1434.6 1747.05L2042.51 1395.1L2042.51 1416.43L1434.6 1768.38ZM1434.6 1704.39L1434.6 1725.72L2042.51 1373.77L2042.51 1352.44L1434.6 1704.39ZM2042.51 2013.68L2042.51 1992.35L1434.6 2344.29L1434.6 2365.62L2042.51 2013.68Z"
          fill="url(#paint1_linear_562_441)"/>
    <path d="M2042.5 2013.68L2650.41 2365.63L2650.41 1704.39L2042.5 1352.44L2042.5 2013.68Z"
          fill="url(#paint2_linear_562_441)"/>
    <path fill-rule="evenodd" clip-rule="evenodd"
          d="M2650.41 2301.64L2650.41 2322.97L2042.5 1971.02L2042.5 1949.69L2650.41 2301.64ZM2650.41 2280.31L2042.5 1928.36L2042.5 1907.03L2650.41 2258.98L2650.41 2280.31ZM2042.5 1864.37L2042.5 1885.7L2650.41 2237.65L2650.41 2216.32L2042.5 1864.37ZM2042.5 1843.04L2042.5 1821.71L2650.41 2173.65L2650.41 2194.99L2042.5 1843.04ZM2042.5 1779.05L2042.5 1800.38L2650.41 2152.32L2650.41 2130.99L2042.5 1779.05ZM2042.5 1757.72L2042.5 1736.39L2650.41 2088.33L2650.41 2109.66L2042.5 1757.72ZM2042.5 1693.73L2042.5 1715.06L2650.41 2067L2650.41 2045.67L2042.5 1693.73ZM2042.5 1672.4L2042.5 1651.07L2650.41 2003.01L2650.41 2024.34L2042.5 1672.4ZM2042.5 1608.41L2042.5 1629.74L2650.41 1981.68L2650.41 1960.35L2042.5 1608.41ZM2042.5 1587.08L2042.5 1565.75L2650.41 1917.69L2650.41 1939.02L2042.5 1587.08ZM2042.5 1523.08L2042.5 1544.42L2650.41 1896.36L2650.41 1875.03L2042.5 1523.08ZM2042.5 1501.75L2042.5 1480.42L2650.41 1832.37L2650.41 1853.7L2042.5 1501.75ZM2042.5 1437.76L2042.5 1459.09L2650.41 1811.04L2650.41 1789.71L2042.5 1437.76ZM2042.5 1416.43L2042.5 1395.1L2650.41 1747.05L2650.41 1768.38L2042.5 1416.43ZM2042.5 1352.44L2042.5 1373.77L2650.41 1725.72L2650.41 1704.39L2042.5 1352.44ZM2650.41 2365.63L2650.41 2344.3L2042.5 1992.35L2042.5 2013.68L2650.41 2365.63Z"
          fill="url(#paint3_linear_562_441)"/>
    <path d="M1434.6 1704.39L2042.51 2056.33L2042.51 2717.57L1434.6 2365.62L1434.6 1704.39Z"
          fill="url(#paint4_linear_562_441)"/>
    <path fill-rule="evenodd" clip-rule="evenodd"
          d="M2042.51 2120.32L2042.51 2098.99L1434.6 1747.05L1434.6 1768.38L2042.51 2120.32ZM2042.51 2141.65L1434.6 1789.71L1434.6 1811.04L2042.51 2162.98L2042.51 2141.65ZM1434.6 1853.7L1434.6 1832.37L2042.51 2184.31L2042.51 2205.64L1434.6 1853.7ZM1434.6 1875.03L1434.6 1896.36L2042.51 2248.31L2042.51 2226.98L1434.6 1875.03ZM1434.6 1939.02L1434.6 1917.69L2042.51 2269.64L2042.51 2290.97L1434.6 1939.02ZM1434.6 1960.35L1434.6 1981.68L2042.51 2333.63L2042.51 2312.3L1434.6 1960.35ZM1434.6 2024.34L1434.6 2003.01L2042.51 2354.96L2042.51 2376.29L1434.6 2024.34ZM1434.6 2045.67L1434.6 2067L2042.51 2418.95L2042.51 2397.62L1434.6 2045.67ZM1434.6 2109.66L1434.6 2088.33L2042.51 2440.28L2042.51 2461.61L1434.6 2109.66ZM1434.6 2130.99L1434.6 2152.32L2042.51 2504.27L2042.51 2482.94L1434.6 2130.99ZM1434.6 2194.98L1434.6 2173.65L2042.51 2525.6L2042.51 2546.93L1434.6 2194.98ZM1434.6 2216.31L1434.6 2237.64L2042.51 2589.59L2042.51 2568.26L1434.6 2216.31ZM1434.6 2280.3L1434.6 2258.97L2042.51 2610.92L2042.51 2632.25L1434.6 2280.3ZM1434.6 2301.63L1434.6 2322.96L2042.51 2674.91L2042.51 2653.58L1434.6 2301.63ZM1434.6 2365.62L1434.6 2344.29L2042.51 2696.24L2042.51 2717.57L1434.6 2365.62ZM2042.51 2056.33L2042.51 2077.66L1434.6 1725.72L1434.6 1704.39L2042.51 2056.33Z"
          fill="url(#paint5_linear_562_441)"/>
    <path d="M2042.5 2056.33L2650.41 1704.38L2650.41 2365.62L2042.5 2717.57L2042.5 2056.33Z"
          fill="url(#paint6_linear_562_441)"/>
    <path fill-rule="evenodd" clip-rule="evenodd"
          d="M2650.41 1768.37L2650.41 1747.04L2042.5 2098.99L2042.5 2120.32L2650.41 1768.37ZM2650.41 1789.71L2042.5 2141.65L2042.5 2162.98L2650.41 1811.04L2650.41 1789.71ZM2042.5 2205.64L2042.5 2184.31L2650.41 1832.37L2650.41 1853.7L2042.5 2205.64ZM2042.5 2226.97L2042.5 2248.3L2650.41 1896.36L2650.41 1875.03L2042.5 2226.97ZM2042.5 2290.96L2042.5 2269.63L2650.41 1917.69L2650.41 1939.02L2042.5 2290.96ZM2042.5 2312.29L2042.5 2333.62L2650.41 1981.68L2650.41 1960.35L2042.5 2312.29ZM2042.5 2376.28L2042.5 2354.95L2650.41 2003.01L2650.41 2024.34L2042.5 2376.28ZM2042.5 2397.61L2042.5 2418.94L2650.41 2067L2650.41 2045.67L2042.5 2397.61ZM2042.5 2461.61L2042.5 2440.28L2650.41 2088.33L2650.41 2109.66L2042.5 2461.61ZM2042.5 2482.94L2042.5 2504.27L2650.41 2152.32L2650.41 2130.99L2042.5 2482.94ZM2042.5 2546.93L2042.5 2525.6L2650.41 2173.65L2650.41 2194.98L2042.5 2546.93ZM2042.5 2568.26L2042.5 2589.59L2650.41 2237.64L2650.41 2216.31L2042.5 2568.26ZM2042.5 2632.25L2042.5 2610.92L2650.41 2258.97L2650.41 2280.3L2042.5 2632.25ZM2042.5 2653.58L2042.5 2674.91L2650.41 2322.96L2650.41 2301.63L2042.5 2653.58ZM2042.5 2717.57L2042.5 2696.24L2650.41 2344.29L2650.41 2365.62L2042.5 2717.57ZM2650.41 1704.38L2650.41 1725.71L2042.5 2077.66L2042.5 2056.33L2650.41 1704.38Z"
          fill="url(#paint7_linear_562_441)"/>
    <defs>
        <linearGradient id="paint0_linear_562_441" x1="1738.55" y1="2190.14" x2="1451.81"
                        y2="1693.48" gradientUnits="userSpaceOnUse">
            <stop stop-color="#353535"/>
            <stop offset="1" stop-color="white"/>
        </linearGradient>
        <linearGradient id="paint1_linear_562_441" x1="1941.19" y1="2168.32" x2="1387.15"
                        y2="1624.32" gradientUnits="userSpaceOnUse">
            <stop stop-color="#181818"/>
            <stop offset="1" stop-color="#181818" stop-opacity="0"/>
        </linearGradient>
        <linearGradient id="paint2_linear_562_441" x1="2095.83" y1="2045.67" x2="2427.05"
                        y2="1628.99" gradientUnits="userSpaceOnUse">
            <stop stop-color="#5F5C5B"/>
            <stop offset="1" stop-color="white"/>
        </linearGradient>
        <linearGradient id="paint3_linear_562_441" x1="2053.17" y1="2061.67" x2="2588.85"
                        y2="1651.06" gradientUnits="userSpaceOnUse">
            <stop stop-color="#181818"/>
            <stop offset="1" stop-color="#181818" stop-opacity="0"/>
        </linearGradient>
        <linearGradient id="paint4_linear_562_441" x1="1574.25" y1="1771.41" x2="1368.49"
                        y2="2597.34" gradientUnits="userSpaceOnUse">
            <stop stop-color="white"/>
            <stop offset="1" stop-color="#5F5F5F"/>
        </linearGradient>
        <linearGradient id="paint5_linear_562_441" x1="1582.47" y1="1804.27" x2="1380.05"
                        y2="2425.21" gradientUnits="userSpaceOnUse">
            <stop stop-color="#282828"/>
            <stop offset="1" stop-color="#181818"/>
        </linearGradient>
        <linearGradient id="paint6_linear_562_441" x1="2141.08" y1="2042.5" x2="2638.37"
                        y2="2149.71" gradientUnits="userSpaceOnUse">
            <stop stop-color="white"/>
            <stop offset="1" stop-color="#4E4E4E"/>
        </linearGradient>
        <linearGradient id="paint7_linear_562_441" x1="2108.22" y1="2067.14" x2="2777.33"
                        y2="2116.23" gradientUnits="userSpaceOnUse">
            <stop stop-color="#1C1C1C"/>
            <stop offset="1" stop-color="#181818"/>
        </linearGradient>
    </defs>
</svg>
