<svg width="4085" height="4085" viewBox="0 0 4085 4085" fill="none"
     xmlns="http://www.w3.org/2000/svg">
    <rect width="4085" height="4085" fill="#0C0C0C"/>
    <path d="M2148.93 2096.81L2042.9 2156.41V2103.11V2045.19L2148.93 1985.59V2096.81ZM2144.65 1978.57L2038.79 2038.07L1932.93 1978.57L2038.79 1919.06L2144.65 1978.57ZM1928.65 2096.81V1985.59L2034.68 2045.19V2103.11V2156.41L1928.65 2096.81Z"
          stroke="white" stroke-width="8.215"/>
    <path d="M1809.44 1914.2L2037.25 1781.09L2268.14 1914.21V2173.19L2037.25 2303.94L1809.44 2173.21V1914.2Z"
          stroke="white" stroke-width="8.215"/>
    <path d="M1703.06 1851.79L2038.79 1662.76L2374.52 1851.79V2224.93L2038.79 2412.4L1703.06 2224.93L1703.06 1851.79Z"
          stroke="white" stroke-width="8.215"/>
    <path d="M1810.3 1914.07L1705.99 1854.15" stroke="white" stroke-width="8.215"/>
    <path d="M2266.81 1914.35L2374.04 1852.75" stroke="white" stroke-width="8.215"/>
    <path d="M2038.79 2301.46L2038.79 2409.06" stroke="white" stroke-width="8.215"/>
    <path d="M2038.79 2540.33L2038.79 2673.41" stroke="white" stroke-width="8.215"/>
    <path d="M2475.92 1794.22L2590.16 1728.58" stroke="white" stroke-width="8.215"/>
    <path d="M1601.69 1794.23L1487.44 1728.59" stroke="white" stroke-width="8.215"/>
    <path d="M1599.84 1793.52L2038.81 1544.47L2477.78 1793.52V2291.49L2038.81 2540.54L1599.84 2291.49V1793.52Z"
          stroke="white" stroke-width="8.215"/>
    <path d="M1487.99 1727.36L2038.8 1406.48L2589.62 1727.36V2360.51L2038.8 2678.53L1487.99 2360.51L1487.99 1727.36Z"
          stroke="white" stroke-width="8.215"/>
</svg>
